<?xml version="1.0" standalone="no"?>
<!DOCTYPE svg PUBLIC "-//W3C//DTD SVG 20010904//EN"
 "http://www.w3.org/TR/2001/REC-SVG-20010904/DTD/svg10.dtd">
<svg version="1.0" xmlns="http://www.w3.org/2000/svg"
 width="250.000000pt" height="250.000000pt" viewBox="0 0 250.000000 250.000000"
 preserveAspectRatio="xMidYMid meet">
<metadata>
Created by potrace 1.15, written by Peter Selinger 2001-2017
</metadata>
<g transform="translate(0.000000,250.000000) scale(0.100000,-0.100000)"
fill="#000000" stroke="none">
<path d="M1900 2418 c-35 -29 -41 -45 -29 -70 12 -26 74 -62 90 -53 17 11 9
-12 -10 -29 -19 -17 -21 -17 -48 3 -15 11 -68 33 -118 49 -74 23 -100 27 -145
21 l-55 -7 60 1 c77 1 212 -41 263 -82 l39 -30 33 34 c19 19 39 35 45 35 11 0
206 -210 213 -229 2 -7 -14 -25 -71 -76 -30 -27 -47 -34 -28 -12 13 16 -4 37
-30 37 -24 0 -31 25 -23 90 6 57 -3 78 -38 84 -7 1 -19 5 -26 10 -11 7 -12 4
-3 -12 9 -17 7 -23 -10 -35 -25 -18 -59 -11 -59 13 0 36 -85 96 -176 124 -82
26 -89 27 -180 16 -129 -15 -226 -69 -307 -167 -72 -89 -110 -202 -97 -291 22
-156 72 -241 183 -314 62 -40 84 -48 154 -58 89 -13 112 -11 218 18 96 26 114
34 163 78 l43 39 -47 50 c-26 28 -47 53 -46 57 2 10 -181 126 -210 133 -20 5
-28 15 -33 43 -13 74 -41 136 -78 175 -21 22 -36 42 -33 44 2 3 30 1 61 -2 46
-6 59 -12 73 -34 52 -83 198 -240 333 -357 l36 -32 26 54 c24 48 27 67 27 152
0 83 -4 109 -26 162 -38 95 -14 95 30 1 37 -80 38 -80 31 -173 -6 -79 -13
-106 -48 -181 -35 -77 -49 -95 -111 -148 -83 -71 -81 -70 -213 -100 -95 -21
-107 -21 -192 -9 -82 12 -100 18 -174 64 -73 46 -87 60 -132 132 -46 73 -52
90 -63 171 -11 86 -11 93 16 180 23 78 36 102 88 165 51 62 75 82 145 119 46
24 104 47 129 50 l45 6 -41 1 c-32 2 -62 -9 -133 -47 -79 -41 -101 -59 -156
-125 -55 -65 -68 -90 -91 -164 -23 -76 -25 -97 -20 -169 4 -45 11 -94 15 -110
8 -27 -8 -45 -379 -421 l-388 -392 -50 0 c-28 0 -75 -5 -104 -11 -48 -9 -60
-18 -126 -87 -72 -76 -73 -77 -63 -112 6 -19 19 -72 30 -118 13 -51 35 -107
58 -145 55 -92 158 -200 245 -258 111 -74 253 -119 283 -90 6 5 33 16 60 25
38 12 67 33 119 85 l69 69 -12 76 -11 76 258 252 c141 139 349 343 462 454
l205 202 97 4 97 5 68 61 c37 33 70 59 74 56 3 -2 14 -30 23 -62 l16 -59 -147
-144 c-82 -79 -213 -207 -293 -284 -80 -77 -191 -184 -247 -239 l-101 -99 -41
32 c-35 28 -47 32 -90 29 l-51 -3 67 -82 c58 -72 71 -83 97 -82 17 0 39 3 48
7 19 8 6 -4 510 481 l368 353 -5 36 c-3 21 -12 84 -19 142 l-13 105 93 203
c92 199 94 204 77 226 -10 12 -85 95 -168 185 -153 166 -194 198 -282 220 -21
5 -47 12 -58 16 -11 3 -27 0 -35 -7z m-126 -158 c51 -17 99 -36 105 -43 8 -10
-5 -28 -53 -76 l-63 -63 -59 38 c-57 37 -63 38 -159 42 l-100 4 -78 -80 -78
-79 11 -82 c12 -89 7 -103 -53 -159 l-25 -24 -11 51 c-17 81 11 197 66 275 24
33 49 74 56 89 8 19 36 41 93 72 68 36 95 45 165 53 46 5 85 10 86 11 2 0 45
-13 97 -29z m-773 -832 c40 -78 125 -182 233 -285 95 -91 106 -105 96 -123 -6
-11 -18 -20 -28 -20 -9 0 -34 -19 -54 -43 -91 -104 -96 -111 -88 -133 6 -15 1
-33 -17 -63 -29 -50 -36 -49 -133 12 -151 96 -294 269 -314 380 l-7 38 143
139 c79 77 144 139 145 140 2 0 12 -19 24 -42z m-319 -360 c7 -13 21 -41 30
-63 15 -36 24 -34 18 5 -1 9 9 3 24 -13 19 -20 25 -35 20 -49 -5 -16 -2 -19
13 -14 13 4 26 -1 38 -14 10 -11 15 -20 10 -20 -4 0 -2 -7 5 -15 9 -10 9 -15
1 -15 -6 0 -11 -7 -11 -15 0 -8 7 -15 15 -15 8 0 33 -16 55 -36 34 -31 40 -42
40 -78 0 -22 -4 -47 -9 -55 -14 -22 -31 -3 -31 36 0 20 -7 45 -17 55 -16 18
-39 25 -29 9 9 -15 -45 -110 -66 -117 -29 -9 -58 23 -58 63 0 66 75 113 131
83 10 -6 19 -7 19 -2 0 14 -48 32 -86 32 -51 0 -104 -53 -104 -104 0 -48 23
-102 49 -116 19 -10 20 -12 6 -27 -10 -9 -12 -19 -7 -27 11 -13 -13 -76 -28
-76 -6 0 -10 -11 -10 -25 0 -14 -4 -25 -9 -25 -6 0 -5 -15 1 -37 7 -25 6 -43
-1 -61 -15 -31 9 -72 42 -73 20 -1 19 -2 -7 -13 -28 -13 -29 -12 -105 77 -65
76 -92 99 -186 157 l-110 67 -25 99 c-26 104 -54 160 -97 194 -21 17 -23 21
-9 26 9 3 24 0 33 -7 9 -8 30 -15 47 -16 17 -1 43 -5 58 -8 20 -6 29 -2 37 14
7 12 17 21 24 21 7 0 25 7 40 15 34 17 53 16 87 -8 54 -37 130 -11 161 56 23
52 23 60 3 103 -18 37 -34 41 -78 19 -42 -22 -44 -18 -6 10 42 31 65 32 82 3z"/>
<path d="M869 1323 c-32 -19 -99 -118 -99 -144 0 -29 44 -53 87 -46 65 11 112
82 99 149 -12 59 -39 71 -87 41z"/>
<path d="M1023 1090 c-13 -5 -32 -24 -43 -42 -41 -68 -12 -161 54 -173 41 -8
98 10 133 42 20 19 23 29 17 60 -3 21 -18 50 -32 66 -14 15 -22 27 -16 27 5 0
0 7 -10 15 -22 17 -69 19 -103 5z"/>
</g>
</svg>
